<svg xmlns="http://www.w3.org/2000/svg" xmlns:xlink="http://www.w3.org/1999/xlink" viewBox="0,0,256,256" width="16px" height="16px" fill-rule="nonzero"><g fill="none" fill-rule="nonzero" stroke="none" stroke-width="none" stroke-linecap="butt" stroke-linejoin="miter" stroke-miterlimit="10" stroke-dasharray="" stroke-dashoffset="0" font-family="none" font-weight="none" font-size="none" text-anchor="none" style="mix-blend-mode: normal"><g transform="scale(6.4,6.4)"><path d="M4.769,37.5c-1.251,0 -2.269,-1.018 -2.269,-2.269v-30.462c0,-1.251 1.018,-2.269 2.269,-2.269h30.462c1.251,0 2.269,1.018 2.269,2.269v30.462c0,1.251 -1.018,2.269 -2.269,2.269z" fill="#095bc4" stroke="none" stroke-width="1"></path><path d="M35.231,3c0.975,0 1.769,0.794 1.769,1.769v30.462c0,0.975 -0.794,1.769 -1.769,1.769h-30.462c-0.975,0 -1.769,-0.794 -1.769,-1.769v-30.462c0,-0.975 0.794,-1.769 1.769,-1.769h30.462M35.231,2h-30.462c-1.529,0 -2.769,1.24 -2.769,2.769v30.462c0,1.529 1.24,2.769 2.769,2.769h30.462c1.529,0 2.769,-1.24 2.769,-2.769v-30.462c0,-1.529 -1.24,-2.769 -2.769,-2.769z" fill="#1560c4" stroke="none" stroke-width="1"></path><path d="M11,20.053l5.964,5.965l13.421,-13.42" fill="none" stroke="#ffffff" stroke-width="3"></path></g></g></svg>